<?xml version="1.0" standalone="no"?>
<!DOCTYPE svg PUBLIC "-//W3C//DTD SVG 20010904//EN"
 "http://www.w3.org/TR/2001/REC-SVG-20010904/DTD/svg10.dtd">
<svg version="1.0" xmlns="http://www.w3.org/2000/svg"
 width="461.000000pt" height="461.000000pt" viewBox="0 0 461.000000 461.000000"
 preserveAspectRatio="xMidYMid meet">
<metadata>
Created by potrace 1.11, written by Peter Selinger 2001-2013
</metadata>
<g transform="translate(0.000000,461.000000) scale(0.100000,-0.100000)"
fill="#000000" stroke="none">
<path d="M2285 3651 c-81 -20 -106 -59 -114 -178 l-6 -83 -743 -485 c-409
-267 -745 -485 -747 -485 -2 0 -6 15 -9 33 -3 17 -8 50 -11 71 -8 51 -52 96
-95 96 -43 0 -89 -26 -100 -56 -6 -14 -10 -87 -11 -162 l0 -137 -225 -143
-224 -144 2 -186 c3 -157 5 -187 18 -190 8 -1 103 56 211 127 l197 129 6 -37
c3 -20 6 -162 6 -317 0 -154 3 -342 7 -417 l6 -137 589 0 588 0 0 105 0 105
-485 0 -485 0 2 427 3 427 470 308 c557 366 883 576 1058 682 l128 77 55 -31
c107 -60 430 -269 1056 -683 l638 -422 0 -392 0 -393 -910 0 -910 0 0 -105 0
-105 1014 0 1014 0 4 414 c2 228 7 418 10 422 4 3 74 -38 155 -92 81 -55 151
-101 156 -102 4 -2 6 87 5 199 l-3 203 -162 99 -163 100 0 173 c0 95 -4 184
-10 198 -13 34 -62 58 -112 54 -61 -5 -79 -34 -85 -144 -3 -49 -9 -95 -12
-102 -9 -16 -78 28 -915 584 l-681 452 -6 95 c-7 99 -18 133 -46 141 -39 10
-100 14 -128 7z"/>
<path d="M2169 2861 c-85 -54 -363 -234 -619 -400 -256 -167 -529 -344 -607
-394 l-142 -92 0 -362 -1 -363 415 0 415 0 0 360 0 360 308 0 309 0 6 -351 c3
-193 8 -354 11 -356 3 -3 379 -8 835 -12 l831 -6 0 327 0 328 -282 188 c-349
232 -1240 820 -1289 850 l-35 21 -155 -98z m1151 -1161 l0 -270 -330 0 -330 0
0 270 0 270 330 0 330 0 0 -270z"/>
</g>
</svg>
