<?xml version="1.0" encoding="utf-8"?>
<!-- Generator: Adobe Illustrator 25.2.1, SVG Export Plug-In . SVG Version: 6.00 Build 0)  -->
<svg version="1.1" id="Слой_1" xmlns="http://www.w3.org/2000/svg" xmlns:xlink="http://www.w3.org/1999/xlink" x="0px" y="0px"
	 viewBox="0 0 419.1 66.2" style="enable-background:new 0 0 419.1 66.2;" xml:space="preserve">
<style type="text/css">
	.st0{fill:#FFFFFF;}
	.st1{fill-rule:evenodd;clip-rule:evenodd;fill:#FFFFFF;}
	.st2{fill:none;}
</style>
<g id="shape-svg">
	<g id="Слой_2_1_">
		<g id="Слой_1-2">
			<g id="_b8584fff">
				<path id="svg_1" class="st0" d="M125.3,0.1c1.6-0.1,3.2-0.1,4.7,0c0.2,1.8,0,3.7,0.1,5.5v53.6c0,1.8,0.1,3.6-0.1,5.4
					c-1.6,0.1-3.1,0.1-4.7,0c-0.2-1.8-0.1-3.6-0.1-5.4c0-17.9,0-35.8,0-53.6C125.3,3.8,125.1,1.9,125.3,0.1z"/>
			</g>
		</g>
	</g>
</g>
<g>
	<g id="icon-svg">
		<path id="svg_2" class="st1" d="M53.1,0.9c-0.5,0.5-1,1.9-1,3.1l0,2.2L34,18.1L15.9,29.9l-0.2-2.1c-0.2-2.5-1.9-3.7-3.7-2.7
			c-1,0.5-1.2,1.3-1.2,4.4v3.8l-5.4,3.5L0,40.3v4.4c0,2.4,0.1,4.4,0.3,4.4s2.5-1.5,5.2-3.3l4.9-3.3l0.2,11.1l0.2,11.1h14.1H39v-2.4
			V60H27.3H15.6l0-10.4l0-10.3l19.6-12.9c10.8-7.1,20-12.9,20.5-12.9c0.5,0,10.2,6.2,21.5,13.7l20.5,13.7v9.5V60H75.9H54v2.4v2.4
			h24.3h24.3V54.6c0-5.6,0.2-10.2,0.3-10.2c0.2,0,1.9,1.1,3.9,2.4l3.6,2.4l0-4.7l0-4.7l-3.9-2.4l-3.9-2.4v-4.7
			c0-4.4-0.1-4.7-1.5-5.4c-2.2-1-3.3,0.2-3.3,3.5c0,1.4-0.2,2.6-0.4,2.6c-0.2,0-9-5.7-19.5-12.7L58.8,5.8V3.2c0-1.8-0.3-2.7-0.9-2.9
			C56.2-0.3,54.1-0.1,53.1,0.9 M37.3,28.6L19.2,40.4V49v8.6h9.9H39v-8.7v-8.7h7.5H54l0.2,8.5l0.2,8.6l20,0.2l19.9,0.2v-7.7v-7.7
			L75.1,29.5c-10.5-7-19.2-12.7-19.3-12.7C55.6,16.8,47.3,22.1,37.3,28.6 M63.6,46.8v6.6h8.1h8.1v-6.6v-6.6h-8.1h-8.1L63.6,46.8"/>
	</g>
	<path id="SvgjsPath99932" class="st0" d="M152.2,43.5c4.4,3.9,9.2,5.5,13.4,5.5c6.8,0,12-4,12-9.4c0-12-19.9-6.3-19.9-13.2
		c0-2.8,2.7-4.1,6-4.1c2.9,0,6.2,1,8.6,2.7l3-3.7c-3.5-2.5-7.7-3.8-11.6-3.8c-6.1,0-11.2,3.1-11.2,9.2c0,11.4,19.9,6.2,19.9,12.9
		c0,2.7-3,4.6-7,4.6c-3.1,0-6.8-1.2-10.1-4.3L152.2,43.5L152.2,43.5z M186.6,33.3c0-6,4.3-11,10.6-11c6,0,10.6,4.7,10.6,11
		c0,6-4.2,11-10.6,11C190.9,44.2,186.6,39.2,186.6,33.3L186.6,33.3z M181.1,33.3c0,8.6,6.7,15.8,16,15.8c8.6,0,16-6.4,16-15.8
		c0-8.4-6.5-15.8-16-15.8C188.4,17.5,181.1,24.2,181.1,33.3L181.1,33.3z M217.8,17.5V49h21.5v-4.9h-16.2V17.5L217.8,17.5L217.8,17.5
		z M243,49h5.3V17.5H243V49z M264.6,44.3h-5.1V22.3h5.1c6.3,0,10.5,5.1,10.5,11C275.1,39.5,270.5,44.3,264.6,44.3z M264.6,17.5
		h-10.4V49h10.4c8.8,0,16-7,16-15.7C280.6,24.4,273.3,17.5,264.6,17.5z M317,17.5v11.8h-15.5V17.5h-5.2V49h5.2V34.3H317V49h5.3V17.5
		H317z M332.4,33.3c0-6,4.3-11,10.6-11c6,0,10.5,4.7,10.5,11c0,6-4.2,11-10.5,11C336.8,44.2,332.4,39.2,332.4,33.3L332.4,33.3z
		 M327,33.3c0,8.6,6.7,15.8,16,15.8c8.6,0,16-6.4,16-15.8c0-8.4-6.5-15.8-16-15.8C334.3,17.5,327,24.2,327,33.3z M393.7,17.5L380,34
		l-13.6-16.4h-2.8V49h5.2V27L380,40.6L391.2,27v22h5.2V17.5H393.7z M402.1,17.5V49h21.5v-4.9h-16.2v-9.9h12.3v-4.9h-12.3v-7h16.2
		v-4.9L402.1,17.5L402.1,17.5z"/>
</g>
<g>
	<rect id="canvas_background" x="-36.8" y="-222.6" class="st2" width="542" height="510"/>
</g>
</svg>
