<svg width="540" height="508" xmlns="http://www.w3.org/2000/svg" class="injected-svg">
 <g fill="#FFFFFF" id="shape-svg">
  <title>forma</title>
  <g id="Слой_2">
   <g id="Слой_1-2">
    <g id="_b8584fff">
     <path transform="translate(161,204) scale(1) " d="m0.1,0.11a24.81,24.81 0 0 1 4.72,0c0.18,3 0,6 0.07,9l0,87.15c0,2.94 0.12,5.89 -0.1,8.83a36.23,36.23 0 0 1 -4.66,0c-0.23,-2.94 -0.08,-5.89 -0.13,-8.83q0,-43.58 0,-87.15c0.06,-3 -0.09,-6.01 0.1,-9z" id="svg_1"/>
    </g>
   </g>
  </g>
 </g>

 <g>
  <title>Layer 1</title>
  <g fill="#FFFFFF" id="icon-svg">
   <path transform="translate(31,196.5) scale(0.6000000238418579) " d="m96.571,43.571c-0.864,0.865 -1.592,3.227 -1.619,5.25l-0.047,3.679l-30.203,19.728l-30.202,19.728l-0.31,-3.475c-0.371,-4.15 -3.107,-6.131 -6.19,-4.481c-1.673,0.896 -2,2.094 -2,7.337l0,6.267l-9,5.786l-9,5.787l0,7.411c0,4.077 0.237,7.412 0.526,7.412c0.289,0 4.227,-2.478 8.75,-5.507l8.224,-5.507l0.272,18.507l0.272,18.507l23.478,0l23.478,0l0,-4l0,-4l-19.5,0l-19.5,0l0.015,-17.25l0.014,-17.25l32.648,-21.464c17.957,-11.806 33.363,-21.45 34.236,-21.432c0.873,0.018 16.999,10.278 35.837,22.8l34.25,22.768l0,15.914l0,15.914l-36.5,0l-36.5,0l0,4l0,4l40.5,0l40.5,0l0,-17c0,-9.35 0.25,-17 0.555,-17c0.305,0 3.23,1.817 6.5,4.037l5.945,4.038l-0.002,-7.788l-0.003,-7.787l-6.497,-3.968l-6.498,-3.969l0,-7.803c0,-7.328 -0.15,-7.871 -2.47,-8.928c-3.618,-1.649 -5.53,0.354 -5.53,5.79c0,2.408 -0.33,4.378 -0.734,4.378c-0.404,0 -15.029,-9.52 -32.5,-21.156l-31.766,-21.156l0,-4.237c0,-2.941 -0.484,-4.423 -1.582,-4.844c-2.795,-1.073 -6.232,-0.65 -7.847,0.964m-26.321,46.155l-30.25,19.714l0,14.28l0,14.28l16.5,0l16.5,0l0,-14.5l0,-14.5l12.473,0l12.472,0l0.278,14.25l0.277,14.25l33.25,0.263l33.25,0.264l0,-12.871l0,-12.871l-31.809,-21.143c-17.495,-11.628 -32.008,-21.14 -32.25,-21.136c-0.243,0.003 -14.053,8.877 -30.691,19.72m43.75,30.274l0,11l13.5,0l13.5,0l0,-11l0,-11l-13.5,0l-13.5,0l0,11" fill-rule="evenodd" id="svg_2"/>
  </g>
  <path id="SvgjsPath99932" d="m188,265.245c4.44,3.89 9.23,5.5 13.42,5.5c6.77,0.02 12.04,-3.98 12.04,-9.43c0,-12.04 -19.86,-6.3 -19.86,-13.23c0,-2.81 2.66,-4.06 6,-4.06c2.86,0 6.22,0.97 8.57,2.68l2.99,-3.69c-3.52,-2.53 -7.74,-3.76 -11.58,-3.76c-6.11,0.02 -11.19,3.06 -11.19,9.21c0,11.38 19.89,6.17 19.89,12.87c0,2.68 -3.03,4.62 -6.99,4.6c-3.12,0 -6.83,-1.23 -10.06,-4.29l-3.23,3.6zm34.36,-10.23c0,-6.02 4.27,-10.97 10.57,-10.97c5.98,0 10.55,4.66 10.55,10.97c0,6.02 -4.22,10.96 -10.55,10.96c-6.24,0 -10.57,-5.01 -10.57,-10.96zm-5.45,0c0,8.59 6.68,15.75 16.02,15.75c8.62,0 16.02,-6.44 16.02,-15.75c0,-8.44 -6.5,-15.76 -16.02,-15.76c-8.74,0 -16.02,6.7 -16.02,15.76zm36.7,-15.78l0,31.53l21.49,0l0,-4.88l-16.24,0l0,-26.65l-5.25,0zm25.22,31.53l5.28,0l0,-31.51l-5.28,0l0,31.51zm21.58,-4.77l-5.14,0l0,-21.95l5.14,0c6.33,0 10.52,5.12 10.52,10.99c0,6.19 -4.63,10.96 -10.52,10.96zm0,-26.72l-10.39,0l0,31.49l10.39,0c8.83,0 15.97,-6.99 15.97,-15.73c0,-8.9 -7.27,-15.76 -15.97,-15.76zm52.43,-0.02l0,11.84l-15.54,0l0,-11.84l-5.25,0l0,31.51l5.25,0l0,-14.77l15.54,0l0,14.77l5.27,0l0,-31.51l-5.27,0zm15.4,15.76c0,-6.02 4.26,-10.97 10.57,-10.97c5.98,0 10.55,4.66 10.55,10.97c0,6.02 -4.22,10.96 -10.55,10.96c-6.24,0 -10.57,-5.01 -10.57,-10.96zm-5.45,0c0,8.59 6.68,15.75 16.02,15.75c8.61,0 16.02,-6.44 16.02,-15.75c0,-8.44 -6.51,-15.76 -16.02,-15.76c-8.75,0 -16.02,6.7 -16.02,15.76zm66.67,-15.74l-13.63,16.42l-13.62,-16.42l-2.79,0l0,31.49l5.23,0l0,-22.06l11.18,13.58l11.19,-13.56l0,22.04l5.23,0l0,-31.49l-2.79,0zm8.48,-0.02l0,31.51l21.51,0l0,-4.86l-16.24,0l0,-9.93l12.26,0l0,-4.88l-12.26,0l0,-6.96l16.24,0l0,-4.88l-21.51,0z" fill="#FFFFFF"/>
 </g>
 <g>
  <title>background</title>
  <rect x="-1" y="-1" width="542" height="510" id="canvas_background" fill="none"/>
 </g>
</svg>